<svg xmlns="http://www.w3.org/2000/svg" width="1600" height="900" viewBox="0 0 1600 900" fill="none">
  <rect width="1600" height="900" fill="#0A1324"/>
  <g opacity="0.2" stroke="#93C5FD" stroke-width="2">
    <path d="M0 730 L180 700 L300 710 L420 640 L560 655 L700 590 L860 610 L980 540 L1160 565 L1340 510 L1600 540"/>
    <path d="M0 600 L160 620 L300 590 L460 610 L620 560 L760 575 L900 530 L1060 555 L1240 500 L1410 525 L1600 505"/>
    <path d="M0 470 L140 480 L300 450 L480 470 L650 420 L790 435 L940 398 L1090 420 L1290 380 L1450 395 L1600 372"/>
  </g>
  <g opacity="0.14" stroke="#67E8F9" stroke-width="1">
    <path d="M0 0V900M160 0V900M320 0V900M480 0V900M640 0V900M800 0V900M960 0V900M1120 0V900M1280 0V900M1440 0V900"/>
    <path d="M0 90H1600M0 180H1600M0 270H1600M0 360H1600M0 450H1600M0 540H1600M0 630H1600M0 720H1600M0 810H1600"/>
  </g>
</svg>
